# xmcd CD database file
#
# Track frame offsets:
#	150
#	15700
#	29813
#	41177
#	54365
#	64610
#	72609
#	87280
#	98095
#	109610
#	120770
#	134349
#	142783
#	156227
#	166023
#	178015
#	197750
#	207252
#	216633
#	224562
#	249606
#	263902
#	277874
#	291639
#	304758
#
# Disc length: 4322 seconds
#
# Revision: 0
# Processed by: cddbd v1.5.2PL0 Copyright (c) Steve Scherf et al.
# Submitted via: CDex 1.70beta2
#
DISCID=7f10e019
DTITLE=Marty Robbins - Under Western Skies - Cd 02
DYEAR=1900
DGENRE=Country
TTITLE0=Marty Robbins - Jimmy Martinez
TTITLE1=Marty Robbins - Ghost Train
TTITLE2=Marty Robbins - Song Of The Bandit
TTITLE3=Marty Robbins - Wind
TTITLE4=Marty Robbins - Prairie Fire
TTITLE5=Marty Robbins - My Love
TTITLE6=Marty Robbins - Ride Cowboy Ride
TTITLE7=Marty Robbins - Red River Valley
TTITLE8=Marty Robbins - The Bend In The River
TTITLE9=Marty Robbins - When The Work's All Done This Fall
TTITLE10=Marty Robbins - Abilene Rose
TTITLE11=Marty Robbins - Dusty Winds
TTITLE12=Marty Robbins - Old Red
TTITLE13=Marty Robbins - Doggone Cowboy
TTITLE14=Marty Robbins - When The Work's All Done This Fall
TTITLE15=Marty Robbins - Small Man
TTITLE16=Marty Robbins - The Red Hills Of Utah
TTITLE17=Marty Robbins - Tall Handsome Stranger
TTITLE18=Marty Robbins - The Fastest Gun Around
TTITLE19=Marty Robbins - San Angelo
TTITLE20=Marty Robbins - Old Red
TTITLE21=Marty Robbins - Man Walks Among Us
TTITLE22=Marty Robbins - Johnny Fedavo
TTITLE23=Marty Robbins - The Master's Call
TTITLE24=Marty Robbins - El Paso (short version-stereo)
EXTD=
EXTT0=
EXTT1=
EXTT2=
EXTT3=
EXTT4=
EXTT5=
EXTT6=
EXTT7=
EXTT8=
EXTT9=
EXTT10=
EXTT11=
EXTT12=
EXTT13=
EXTT14=
EXTT15=
EXTT16=
EXTT17=
EXTT18=
EXTT19=
EXTT20=
EXTT21=
EXTT22=
EXTT23=
EXTT24=
PLAYORDER=
